<svg width="41" height="41" viewBox="0 0 41 41" fill="none" xmlns="http://www.w3.org/2000/svg">
<path d="M26.9829 17.9915V16.4773C26.9829 12.9842 24.1512 10.1525 20.6581 10.1525V10.1525C17.165 10.1525 14.3333 12.9842 14.3333 16.4773V22.6413C14.3333 26.1344 17.192 28.9661 20.685 28.9661V28.9661C24.1485 28.9661 26.9829 26.1584 26.9829 22.6949V22.6949M2 20.5V20.5C2 10.2827 10.2827 2 20.5 2V2C30.7173 2 39 10.2827 39 20.5V20.5C39 30.7173 30.7173 39 20.5 39V39C10.2827 39 2 30.7173 2 20.5Z" stroke="white" stroke-width="4"/>
</svg>
