<svg width="51" height="46" viewBox="0 0 51 46" fill="none" xmlns="http://www.w3.org/2000/svg">
<path d="M31.184 44.5H43C46.866 44.5 50 41.366 50 37.5V8C50 4.13401 46.866 1 43 1H8C4.13401 1 1 4.13401 1 8V37.5C1 41.366 4.13401 44.5 8 44.5H16.692C17.9843 44.5 19.032 43.4523 19.032 42.16V42.16V38.65V38.65C19.032 36.9269 17.6351 35.53 15.912 35.53H15.0384C13.8441 35.53 12.7124 34.9955 11.9538 34.073L10.5355 32.3484C10.0187 31.72 10.0646 30.8017 10.6413 30.2279V30.2279C11.1859 29.686 12.0417 29.6153 12.6679 30.0603L13.714 30.8037C14.1175 31.0904 14.5837 31.2763 15.0737 31.346L15.7484 31.4419C16.6049 31.5636 17.4771 31.3882 18.2199 30.9448L18.243 30.931C18.761 30.6218 19.195 30.1897 19.5066 29.6731L19.7748 29.2284C20.0543 28.7648 20.4904 28.4163 21.0043 28.2459L21.3184 28.1417C22.0597 27.8959 22.56 27.2029 22.56 26.4219V26.4219C22.56 25.4212 21.7488 24.61 20.7481 24.61H18.0595C15.8954 24.61 14.0377 23.0697 13.6369 20.943L13.3898 19.6316C13.233 18.7996 13.2508 17.9441 13.4421 17.1194L14.0382 14.5494C14.2298 13.7234 14.5699 12.939 15.042 12.2345L15.112 12.13L16.1938 9.97742C16.7322 8.90612 17.8287 8.23 19.0277 8.23H19.3473C20.5565 8.23 21.6229 9.02227 21.972 10.18V10.18C22.3211 11.3377 23.3875 12.13 24.5967 12.13H28.2176C29.5556 12.13 30.7792 11.3755 31.38 10.18L31.5679 9.80615C32.0535 8.83985 33.0425 8.23 34.124 8.23V8.23C35.2055 8.23 36.1945 8.83985 36.6801 9.80615L37.848 12.13L38.3196 13.0683C38.5273 13.4818 38.6936 13.9148 38.8159 14.361L39.431 16.6046C39.6792 17.5102 39.7229 18.4597 39.5589 19.3843L39.2876 20.9139C38.9083 23.0521 37.0497 24.61 34.8782 24.61H32.3902C31.291 24.61 30.4 25.501 30.4 26.6002V26.6002C30.4 27.3009 30.7734 27.9529 31.375 28.312V28.312C31.9828 28.6748 32.36 29.3335 32.36 30.0413V42.55" stroke="#FFF6F3" stroke-width="2"/>
</svg>
