<svg width="150" height="150" viewBox="0 0 150 150" fill="none" xmlns="http://www.w3.org/2000/svg">
<rect width="149.975" height="149.975" rx="14" fill="url(#paint0_linear_4423_29)"/>
<path d="M122.287 68.8249H97.3139M22.9991 68.8249H47.3671H72.3405M22.9991 68.8249L22.9991 76.6692C22.9991 79.7171 23.6149 82.7337 24.8097 85.5377V85.5377C26.6803 89.9281 29.8914 93.6146 33.9836 96.0699L34.4771 96.366C37.6021 98.241 41.1075 99.3922 44.7358 99.7348L47.3671 99.9834M22.9991 68.8249L22.9991 68.6716C22.9991 62.6005 25.3128 56.7576 29.4692 52.3324V52.3324C30.6015 51.1269 31.8715 50.0315 33.2281 49.0854V49.0854C41.7047 43.1734 53.0319 42.937 61.6756 48.602L63.0167 49.481C65.084 50.8359 66.891 52.5512 68.3517 54.5451V54.5451C70.9433 58.0828 72.3405 62.3542 72.3405 66.7397V68.8249M72.3405 68.8249H97.3139M97.3139 68.8249V39.2243V75.01C97.3139 88.8024 108.495 99.9834 122.287 99.9834V99.9834H47.3671M47.3671 99.9834L54.4375 98.7129C56.8391 98.2813 59.1474 97.4357 61.2594 96.2137L61.5561 96.042C64.0725 94.5861 66.2323 92.587 67.8781 90.1905V90.1905C69.0217 88.5254 69.9001 86.693 70.4822 84.7587L71.5266 81.2883" stroke="white" stroke-width="8" stroke-linecap="round"/>
<defs>
<linearGradient id="paint0_linear_4423_29" x1="3.84551" y1="3.07641" x2="145.36" y2="149.975" gradientUnits="userSpaceOnUse">
<stop stop-color="#B5182D"/>
<stop offset="1" stop-color="#57192E"/>
</linearGradient>
</defs>
</svg>
