<svg width="1306" height="1698" viewBox="0 0 1306 1698" fill="none" xmlns="http://www.w3.org/2000/svg">
<g opacity="0.19">
<path d="M1438 150.825L1345.1 522.591C1320.4 621.455 1237.56 695.031 1136.47 707.897V707.897C1042.23 719.892 963.196 784.833 933.154 874.962L827.857 1190.87C793.433 1294.15 714.868 1376.77 613.454 1416.35V1416.35C487.42 1465.54 398.744 1580.17 382.802 1714.52L358.166 1922.13C347.008 2016.16 306.137 2104.18 241.5 2173.37V2173.37" stroke="#FFF6F3" stroke-width="6"/>
<path d="M1532.5 197.748L1439.6 569.513C1414.9 668.377 1332.06 741.953 1230.97 754.819V754.819C1136.73 766.814 1057.7 831.755 1027.65 921.885L922.357 1237.79C887.932 1341.07 809.368 1423.69 707.953 1463.27V1463.27C581.919 1512.46 493.244 1627.09 477.301 1761.44L452.665 1969.05C441.507 2063.08 400.637 2151.1 336 2220.3V2220.3" stroke="#FFF6F3" stroke-width="6"/>
<path d="M1656.5 249.747L1563.6 621.512C1538.9 720.377 1456.06 793.953 1354.97 806.819V806.819C1260.73 818.814 1181.7 883.755 1151.65 973.884L1046.36 1289.79C1011.93 1393.07 933.368 1475.69 831.953 1515.27V1515.27C705.919 1564.46 617.244 1679.09 601.301 1813.44L576.665 2021.05C565.507 2115.08 524.637 2203.1 460 2272.29V2272.29" stroke="#FFF6F3" stroke-width="6"/>
<path d="M1779.5 280.748L1686.6 652.513C1661.9 751.377 1579.06 824.953 1477.97 837.819V837.819C1383.73 849.814 1304.7 914.755 1274.65 1004.88L1169.36 1320.79C1134.93 1424.07 1056.37 1506.69 954.953 1546.27V1546.27C828.919 1595.46 740.244 1710.09 724.301 1844.44L699.665 2052.05C688.507 2146.08 647.637 2234.1 583 2303.3V2303.3" stroke="#FFF6F3" stroke-width="6"/>
<path d="M1887.5 337.748L1794.6 709.513C1769.9 808.377 1687.06 881.953 1585.97 894.819V894.819C1491.73 906.814 1412.7 971.755 1382.65 1061.88L1277.36 1377.79C1242.93 1481.07 1164.37 1563.69 1062.95 1603.27V1603.27C936.919 1652.46 848.244 1767.09 832.301 1901.44L807.665 2109.05C796.507 2203.08 755.637 2291.1 691 2360.3V2360.3" stroke="#FFF6F3" stroke-width="6"/>
<path d="M1349.67 78.6589L1258.98 435.259C1235.42 527.894 1157.38 596.54 1062.49 608.081V608.081C973.25 618.937 898.352 680.457 870.368 765.891L767.297 1080.56C734.994 1179.17 660.464 1258.29 563.95 1296.41V1296.41C445.189 1343.33 361.551 1451.38 345.902 1578.11L318.507 1799.97C307.122 1892.16 264.484 1977.67 197.699 2042.25V2042.25" stroke="#FFF6F3" stroke-width="6"/>
<path d="M1261.33 6.4928L1172.85 347.879C1150.44 434.311 1077.17 498.054 988.472 508.281V508.281C904.255 517.99 833.501 576.061 807.554 656.768L706.745 970.336C676.558 1064.24 606.094 1139.8 514.529 1176.46V1176.46C403.005 1221.11 324.399 1322.65 309.11 1441.8L278.877 1677.43C267.255 1768.01 222.781 1851.16 153.898 1911.12V1911.12" stroke="#FFF6F3" stroke-width="6"/>
<path d="M1173 -65.6742L1086.7 260.443C1065.46 340.705 996.95 399.574 914.406 408.495V408.495C835.24 417.051 768.639 471.641 744.71 547.587L646.206 860.211C618.125 949.335 551.758 1021.29 465.191 1056.48V1056.48C360.866 1098.88 287.288 1193.96 272.424 1305.59L239.282 1554.5C227.407 1643.68 181.023 1724.64 110.096 1779.99V1779.99" stroke="#FFF6F3" stroke-width="6"/>
<path d="M1084.67 -137.841L1000.54 172.946C980.469 247.072 916.705 301.102 840.291 308.729V308.729C766.206 316.124 703.767 367.197 681.831 438.345L585.685 750.187C559.696 834.477 497.46 902.779 415.942 936.471V936.471C318.776 976.63 250.216 1065.33 235.843 1169.48L199.731 1431.16C187.585 1519.17 139.208 1598.1 66.2954 1648.86V1648.86" stroke="#FFF6F3" stroke-width="6"/>
<path d="M996.335 -210.007L914.354 85.3798C895.473 153.41 836.436 202.638 766.12 208.983V208.983C697.148 215.208 638.882 262.726 618.913 329.036L525.184 640.269C501.274 719.663 443.198 784.255 366.784 816.442V816.442C276.734 854.372 213.182 936.762 199.363 1033.49L160.229 1307.41C147.79 1394.48 97.332 1471.53 22.4937 1517.74V1517.74" stroke="#FFF6F3" stroke-width="6"/>
</g>
</svg>
