<svg width="935" height="977" viewBox="0 0 935 977" fill="none" xmlns="http://www.w3.org/2000/svg">
<g opacity="0.19">
<path d="M924.715 -2.7146L873.548 122.766C841.372 201.673 766.92 255.242 681.878 260.673V260.673C606.091 265.514 538.018 308.709 501.363 375.219L455.503 458.43C417.987 526.501 352.941 575.088 277.023 591.749L264.074 594.591C165.755 616.168 89.9798 694.628 71.8375 793.639L68.9509 809.392C58.1451 868.364 23.0479 920.077 -27.7651 951.897V951.897" stroke="#FFF6F3" stroke-width="6"/>
<path d="M129.282 -390.369L82.4004 -308.811C68.3462 -284.362 42.0113 -269.594 13.8206 -270.353V-270.353C-18.206 -271.216 -47.3967 -252.087 -59.3885 -222.378L-104.307 -111.095C-117.878 -77.4713 -146.099 -51.9136 -180.899 -41.7302V-41.7302C-220.335 -30.1901 -250.976 0.958858 -261.867 40.5793L-287.638 134.338C-306.017 201.201 -362.839 250.426 -431.639 259.084V259.084" stroke="#FFF6F3" stroke-width="6"/>
<path d="M852.403 -37.9559L801.759 83.9689C771.141 157.681 701.186 207.496 621.514 212.32V212.32C549.486 216.681 484.813 257.915 450.467 321.376L404.669 405.996C369.306 471.335 307.34 518.122 234.816 534.244L228.488 535.65C132.481 556.992 58.3429 633.355 39.8485 729.951L36.2373 748.813C24.8957 808.05 -11.9427 859.293 -64.481 888.914V888.914" stroke="#FFF6F3" stroke-width="6"/>
<path d="M780.091 -73.197L729.954 45.1154C700.905 113.665 635.431 159.755 561.1 163.977V163.977C492.862 167.853 431.608 207.096 399.565 267.467L353.809 353.67C320.614 416.211 261.778 461.151 192.708 476.723V476.723C99.1369 497.82 26.7489 572.015 7.96404 666.077L3.57641 688.048C-8.3278 747.656 -46.9563 798.492 -101.197 825.931V825.931" stroke="#FFF6F3" stroke-width="6"/>
<path d="M707.779 -108.439L658.13 6.19838C630.662 69.6201 569.65 112.018 500.63 115.645V115.645C436.216 119.03 378.402 156.249 348.654 213.482L302.927 301.457C271.911 361.13 216.257 404.173 150.703 419.188V419.188C63.3676 439.192 -4.30951 508.245 -22.5529 595.965L-29.0293 627.106C-41.5246 687.188 -81.9919 737.674 -137.913 762.948V762.948" stroke="#FFF6F3" stroke-width="6"/>
<path d="M635.467 -143.68L586.285 -32.7894C560.413 25.5439 503.842 64.2873 440.101 67.3263V67.3263C379.546 70.2134 325.196 105.369 297.733 159.416L252.026 249.366C223.2 306.096 170.78 347.189 108.808 361.636V361.636C27.6625 380.554 -35.3116 444.548 -52.9236 525.988L-61.5759 565.996C-74.6921 626.647 -117.047 676.837 -174.628 699.965V699.965" stroke="#FFF6F3" stroke-width="6"/>
<path d="M563.155 -178.921L514.414 -71.8571C490.154 -18.5676 438.002 16.5632 379.502 19.0224V19.0224C322.847 21.4041 271.986 54.455 246.797 105.258L201.11 197.404C174.48 251.112 125.347 290.198 67.0261 304.069V304.069C-7.97861 321.907 -66.2613 380.928 -83.1541 456.152L-94.0628 504.728C-107.831 566.038 -152.12 615.982 -211.344 636.982V636.982" stroke="#FFF6F3" stroke-width="6"/>
<path d="M490.843 -214.162L442.515 -111.017C419.886 -62.7201 372.127 -31.154 318.826 -29.2651V-29.2651C266.116 -27.3971 218.774 3.5005 195.844 50.9977L150.184 145.579C125.754 196.183 79.9633 233.201 25.3639 246.484V246.484C-43.5523 263.25 -97.1595 317.386 -113.248 386.464L-126.487 443.311C-140.94 505.366 -187.21 555.106 -248.06 573.999V573.999" stroke="#FFF6F3" stroke-width="6"/>
<path d="M418.531 -249.403L370.583 -150.282C349.607 -106.919 306.212 -78.8631 258.061 -77.5336V-77.5336C209.349 -76.1887 165.557 -47.4989 144.869 -3.37832L99.2543 93.9025C77.0239 141.313 34.6307 176.195 -16.1728 188.881V188.881C-79.0578 204.582 -128.01 253.925 -143.21 316.933L-158.848 381.756C-174.018 444.634 -222.315 494.21 -284.776 511.016V511.016" stroke="#FFF6F3" stroke-width="6"/>
<path d="M346.219 -284.645L298.612 -189.669C279.316 -151.172 240.251 -126.563 197.196 -125.781V-125.781C152.542 -124.969 112.334 -98.5497 93.8666 -57.8849L48.3299 42.3841C28.2921 86.506 -10.6459 119.182 -57.5758 131.259V131.259C-114.491 145.905 -158.813 190.548 -173.046 247.569L-191.144 320.071C-207.065 383.848 -257.432 433.293 -321.492 448.033V448.033" stroke="#FFF6F3" stroke-width="6"/>
<path d="M273.906 -319.886L226.596 -229.2C209.009 -195.489 174.236 -174.253 136.214 -174.003V-174.003C95.6849 -173.736 59.1026 -149.659 42.8287 -112.539L-2.58099 -8.96375C-20.439 31.7688 -55.8637 62.1603 -98.8381 73.6169V73.6169C-149.852 87.2168 -189.574 127.259 -202.764 178.38L-223.376 258.266C-240.081 323.01 -292.56 372.357 -358.208 385.05V385.05" stroke="#FFF6F3" stroke-width="6"/>
<path d="M201.595 -355.127L154.529 -268.902C138.687 -239.88 108.161 -221.93 75.0977 -222.195V-222.195C38.773 -222.486 5.86085 -200.835 -8.25191 -167.362L-53.4643 -60.1281C-69.1637 -22.8927 -101.016 5.12864 -139.949 15.9543V15.9543C-185.134 28.5185 -220.293 64.0606 -232.367 109.379L-255.54 196.353C-273.064 262.127 -327.696 311.401 -394.923 322.067V322.067" stroke="#FFF6F3" stroke-width="6"/>
</g>
</svg>
