<svg width="47" height="46" viewBox="0 0 47 46" fill="none" xmlns="http://www.w3.org/2000/svg">
<path d="M10.5 32H4.70824C1.7471 32 0.559898 28.1776 3 26.5V26.5L34.5 3V3C36.8576 1.58542 39.8919 3.05648 40.2415 5.78361L44.5 39V39C44.9439 42.3295 41.6134 44.8885 38.5106 43.602L25.2114 38.0877C25.0707 38.0293 24.9258 37.9814 24.778 37.9445V37.9445C22.8482 37.462 21.8724 35.3065 22.7834 33.5381L29.5 20.5V20.5C29.8677 19.5195 28.6572 18.7161 27.8965 19.4357L15.1442 31.4987C13.5653 32.9922 13.1201 35.3289 14.0392 37.2983L16 41.5V41.5C16.7185 43.1764 18.9029 43.5971 20.1926 42.3074L22.5 40" stroke="#FFF6F3" stroke-width="3"/>
</svg>
