<svg width="62" height="43" viewBox="0 0 62 43" fill="none" xmlns="http://www.w3.org/2000/svg">
<path d="M44.3008 20.2H53C56.866 20.2 60 23.334 60 27.2V34C60 37.866 56.866 41 53 41H9C5.13401 41 2 37.866 2 34V9C2 5.13401 5.13401 2 9 2H30.782H53C56.866 2 60 5.13401 60 9V11.1M44.3008 20.2L27.1104 30.022C26.9419 30.1183 26.7654 30.1998 26.5829 30.2658V30.2658C24.3825 31.0609 22.0602 29.4307 22.0602 27.0911V14.1969C22.0602 11.729 24.608 10.0841 26.8571 11.1V11.1L44.3008 20.2Z" stroke="#FFF6F3" stroke-width="3"/>
</svg>
